<?xml version="1.0" encoding="utf-8"?> <svg xmlns="http://www.w3.org/2000/svg" xmlns:xlink="http://www.w3.org/1999/xlink" version="1.1" id="Layer_1" x="0px" y="0px" viewBox="0 0 32 32" style="enable-background:new 0 0 32 32;" xml:space="preserve"> <g id="round-business_center-24px"> <path id="Path_4030" class="st0" d="M17.3,21.3h-2.7c-0.7,0-1.3-0.6-1.3-1.3H4v5.3C4,26.8,5.2,28,6.7,28h18.7 c1.5,0,2.7-1.2,2.7-2.7V20h-9.3C18.7,20.7,18.1,21.3,17.3,21.3z M26.7,9.3h-5.3C21.3,6.4,18.9,4,16,4s-5.3,2.4-5.3,5.3H5.3 c-1.5,0-2.7,1.2-2.7,2.7v4c0,1.5,1.2,2.7,2.6,2.7c0,0,0,0,0,0h8v-1.3c0-0.7,0.6-1.3,1.3-1.3h2.7c0.7,0,1.3,0.6,1.3,1.3v1.3h8 c1.5,0,2.7-1.2,2.7-2.7v-4C29.3,10.5,28.1,9.3,26.7,9.3z M13.3,9.3c0-1.5,1.2-2.6,2.7-2.6c1.4,0,2.6,1.2,2.6,2.6H13.3z"></path> </g> </svg> 